<svg width="36" height="36" viewBox="0 0 36 36" fill="none" xmlns="http://www.w3.org/2000/svg">
<path d="M17.999 36C8.07461 36 0 27.9254 0 17.999C0 8.07253 8.07461 0 17.999 0C27.9233 0 35.9979 8.07461 35.9979 17.999C35.9979 27.9233 27.9233 35.9979 17.999 35.9979V36ZM17.999 1.06563C8.66269 1.06563 1.06563 8.66269 1.06563 17.999C1.06563 27.3352 8.66269 34.9344 18.001 34.9344C27.3394 34.9344 34.9365 27.3373 34.9365 17.999C34.9365 8.6606 27.3373 1.06563 17.999 1.06563Z" fill="white"/>
<path d="M18 34.4444C8.93278 34.4444 1.55469 27.0663 1.55469 17.9991C1.55469 8.9318 8.93278 1.55371 18 1.55371C27.0673 1.55371 34.4454 8.9318 34.4454 17.9991C34.4454 27.0663 27.0673 34.4444 18 34.4444ZM18 1.94368C9.14757 1.94368 1.94465 9.1466 1.94465 17.9991C1.94465 26.8515 9.14757 34.0544 18 34.0544C26.8525 34.0544 34.0554 26.8515 34.0554 17.9991C34.0554 9.1466 26.8546 1.94368 18 1.94368Z" fill="white"/>
<path d="M18.6105 11.9452C18.6105 11.7241 18.5688 11.5031 18.4812 11.282C18.3978 11.086 18.2789 10.89 18.0787 10.6939V9.64917H17.9265V10.6939C17.7242 10.89 17.6074 11.086 17.524 11.282C17.4343 11.5031 17.3926 11.7241 17.3947 11.9452C17.3947 12.1662 17.4364 12.3873 17.5261 12.6083C17.6095 12.8044 17.7284 13.0004 17.9265 13.1964V25.9631H18.0787V13.1943C18.2789 12.9983 18.3957 12.8023 18.4791 12.6062C18.5688 12.3852 18.6105 12.1641 18.6105 11.9431V11.9452Z" fill="white"/>
<path d="M16.4714 13.8513C16.6195 14.016 16.7967 14.1536 17.0094 14.26C17.2263 14.3622 17.4703 14.4414 17.8061 14.4373C17.8478 14.1057 17.7998 13.8533 17.7226 13.624C17.6434 13.3987 17.5266 13.2069 17.3806 13.04C17.2347 12.8753 17.0574 12.7377 16.8426 12.6313C16.6612 12.5458 16.4547 12.4791 16.1961 12.4624L16.2775 11.0735L16.1252 11.0652L16.0397 12.5229C16.0126 12.8169 16.0543 13.0484 16.1231 13.2569L16.0397 14.6562C16.0126 14.9503 16.0543 15.1817 16.1231 15.3903L16.0397 16.7896C16.0126 17.0836 16.0543 17.3151 16.1231 17.5236L16.0397 18.9229C16.0126 19.217 16.0543 19.4484 16.1231 19.657L16.0397 21.0563C16.0126 21.3503 16.0543 21.5818 16.1231 21.7903L16.0397 23.1896C16.0126 23.4878 16.0543 23.7235 16.1252 23.9341C16.2045 24.1593 16.3213 24.3512 16.4672 24.5159C16.6153 24.6807 16.7926 24.8183 17.0053 24.9247C17.2221 25.0268 17.4661 25.1061 17.8019 25.1019C17.8436 24.7703 17.7956 24.518 17.7185 24.2886C17.6392 24.0634 17.5224 23.8715 17.3765 23.7047C17.2305 23.54 17.0532 23.4023 16.8384 23.296C16.657 23.2105 16.4506 23.1437 16.192 23.1271L16.2545 22.0823C16.315 22.1907 16.3838 22.2908 16.4652 22.3805C16.6132 22.5452 16.7905 22.6829 17.0032 22.7892C17.2201 22.8914 17.4641 22.9706 17.7998 22.9665C17.8415 22.6349 17.7935 22.3826 17.7164 22.1532C17.6371 21.928 17.5204 21.7361 17.3744 21.5693C17.2284 21.4045 17.0511 21.2669 16.8364 21.1605C16.6549 21.075 16.4485 21.0083 16.1899 20.9916L16.2524 19.9468C16.3129 20.0553 16.3817 20.1554 16.4631 20.245C16.6111 20.4098 16.7884 20.5474 17.0011 20.6538C17.218 20.756 17.462 20.8352 17.7977 20.831C17.8394 20.4995 17.7915 20.2471 17.7143 20.0177C17.6351 19.7925 17.5183 19.6007 17.3723 19.4338C17.2263 19.2691 17.0491 19.1315 16.8343 19.0251C16.6528 18.9396 16.4464 18.8729 16.1878 18.8562L16.2504 17.8114C16.3108 17.9198 16.3797 18.0199 16.461 18.1096C16.609 18.2744 16.7863 18.412 16.999 18.5184C17.2159 18.6205 17.4599 18.6998 17.7956 18.6956C17.8373 18.364 17.7894 18.1117 17.7122 17.8823C17.633 17.6571 17.5162 17.4652 17.3702 17.3005C17.2242 17.1357 17.047 16.9981 16.8322 16.8918C16.6508 16.8062 16.4443 16.7395 16.1857 16.7228L16.2483 15.6781C16.3087 15.7865 16.3776 15.8866 16.4589 15.9763C16.607 16.141 16.7842 16.2786 16.9969 16.385C17.2138 16.4872 17.4578 16.5664 17.7935 16.5623C17.8353 16.2307 17.7873 15.9784 17.7101 15.749C17.6309 15.5237 17.5141 15.3319 17.3681 15.1651C17.2221 15.0003 17.0449 14.8627 16.8301 14.7563C16.6487 14.6708 16.4422 14.6041 16.1836 14.5874L16.2462 13.5426C16.3067 13.6511 16.3755 13.7512 16.4568 13.8408L16.4714 13.8513Z" fill="white"/>
<path d="M19.9561 12.5229L19.8706 11.0652L19.7183 11.0735L19.7996 12.4624C19.5411 12.4812 19.3346 12.5458 19.1532 12.6313C18.9405 12.7377 18.7611 12.8753 18.6151 13.04C18.4692 13.2048 18.3545 13.3987 18.2731 13.624C18.1981 13.8513 18.148 14.1036 18.1897 14.4373C18.5255 14.4393 18.7695 14.3622 18.9863 14.26C19.1991 14.1536 19.3784 14.016 19.5244 13.8513C19.6057 13.7616 19.6745 13.6594 19.735 13.553L19.7976 14.5978C19.539 14.6166 19.3325 14.6812 19.1511 14.7667C18.9384 14.8731 18.759 15.0107 18.6131 15.1755C18.4671 15.3402 18.3524 15.5342 18.2711 15.7594C18.196 15.9867 18.1459 16.239 18.1876 16.5727C18.5234 16.5748 18.7674 16.4976 18.9843 16.3954C19.197 16.2891 19.3763 16.1514 19.5223 15.9867C19.6036 15.897 19.6724 15.7948 19.7329 15.6885L19.7955 16.7333C19.5369 16.752 19.3304 16.8167 19.149 16.9022C18.9363 17.0085 18.757 17.1462 18.611 17.3109C18.465 17.4757 18.3503 17.6696 18.269 17.8927C18.1939 18.12 18.1439 18.3724 18.1856 18.706C18.5213 18.7081 18.7653 18.631 18.9822 18.5288C19.1949 18.4224 19.3742 18.2848 19.5202 18.12C19.6015 18.0304 19.6704 17.9282 19.7308 17.8218L19.7934 18.8666C19.5348 18.8854 19.3284 18.95 19.1469 19.0355C18.9342 19.1419 18.7549 19.2795 18.6089 19.4443C18.4629 19.609 18.3482 19.8029 18.2669 20.0282C18.1918 20.2555 18.1418 20.5078 18.1835 20.8415C18.5192 20.8436 18.7632 20.7664 18.9801 20.6642C19.1928 20.5579 19.3721 20.4202 19.5181 20.2555C19.5995 20.1658 19.6683 20.0636 19.7287 19.9573L19.7913 21.002C19.5327 21.0208 19.3263 21.0855 19.1448 21.171C18.9321 21.2773 18.7528 21.415 18.6068 21.5797C18.4608 21.7444 18.3461 21.9384 18.2648 22.1636C18.1897 22.3909 18.1397 22.6432 18.1814 22.9769C18.5171 22.979 18.7611 22.9018 18.978 22.7996C19.1907 22.6933 19.3701 22.5557 19.516 22.3909C19.5974 22.3012 19.6662 22.1991 19.7267 22.0927L19.7892 23.1375C19.5306 23.1562 19.3242 23.2209 19.1428 23.3064C18.93 23.4127 18.7507 23.5504 18.6047 23.7151C18.4587 23.8799 18.344 24.0738 18.2627 24.299C18.1876 24.5263 18.1376 24.7787 18.1793 25.1123C18.5151 25.1144 18.759 25.0373 18.9759 24.9351C19.1886 24.8287 19.368 24.6911 19.514 24.5263C19.662 24.3616 19.7767 24.1697 19.856 23.9445C19.9269 23.7339 19.9706 23.4983 19.9415 23.2L19.858 21.8007C19.9269 21.5922 19.9686 21.3607 19.9415 21.0667L19.858 19.6674C19.9269 19.4589 19.9686 19.2274 19.9415 18.9333L19.858 17.534C19.9269 17.3255 19.9686 17.094 19.9415 16.8L19.858 15.4007C19.9269 15.1922 19.9686 14.9607 19.9415 14.6666L19.858 13.2674C19.9269 13.0588 19.9686 12.8273 19.9415 12.5333L19.9561 12.5229Z" fill="white"/>
<path d="M23.9562 13.58C23.9562 13.4215 23.927 13.2609 23.8624 13.1024C23.8019 12.9606 23.7164 12.8209 23.5725 12.6791V11.9263H23.462V12.6791C23.316 12.8209 23.2326 12.9606 23.1721 13.1024C23.1074 13.2609 23.0782 13.4215 23.0782 13.58C23.0782 13.7385 23.1095 13.899 23.1742 14.0575C23.2347 14.1993 23.3202 14.3391 23.464 14.4809V23.6858H23.5746V14.4809C23.7185 14.3391 23.804 14.1993 23.8644 14.0575C23.9291 13.899 23.9583 13.7385 23.9604 13.58H23.9562Z" fill="white"/>
<path d="M22.4132 14.9543C22.5196 15.0731 22.6468 15.1712 22.8011 15.2483C22.9575 15.3213 23.1348 15.3776 23.3767 15.3776C23.4059 15.1378 23.3725 14.9564 23.3162 14.7916C23.2578 14.629 23.1744 14.4913 23.0701 14.3704C22.9659 14.2515 22.8366 14.1514 22.6822 14.0763C22.5509 14.0138 22.4028 13.9679 22.2151 13.9533L22.2735 12.9523L22.163 12.946L22.1004 13.9971C22.0796 14.2098 22.1109 14.3766 22.1609 14.5268L22.1004 15.5361C22.0796 15.7467 22.1109 15.9156 22.1609 16.0658L22.1004 17.0751C22.0796 17.2878 22.1109 17.4546 22.1609 17.6048L22.1004 18.6141C22.0796 18.8247 22.1109 18.9937 22.1609 19.1438L22.1004 20.1531C22.0796 20.3638 22.1109 20.5327 22.1609 20.6828L22.1004 21.6921C22.0796 21.9069 22.1109 22.0779 22.163 22.2302C22.2214 22.3928 22.3048 22.5305 22.4091 22.6493C22.5154 22.7682 22.6426 22.8662 22.7969 22.9434C22.9533 23.0164 23.1306 23.0727 23.3725 23.0727C23.4017 22.8329 23.3683 22.6514 23.312 22.4867C23.2536 22.324 23.1702 22.1864 23.066 22.0654C22.9617 21.9466 22.8324 21.8465 22.6781 21.7714C22.5467 21.7088 22.3986 21.663 22.2109 21.6484L22.2547 20.8955C22.2985 20.9727 22.3486 21.0457 22.407 21.1103C22.5133 21.2292 22.6405 21.3272 22.7949 21.4044C22.9513 21.4774 23.1285 21.5337 23.3704 21.5337C23.3996 21.2938 23.3663 21.1124 23.3099 20.9477C23.2516 20.785 23.1681 20.6474 23.0639 20.5264C22.9596 20.4076 22.8303 20.3075 22.676 20.2324C22.5446 20.1698 22.3965 20.1239 22.2089 20.1093L22.2527 19.3565C22.2965 19.4337 22.3465 19.5067 22.4049 19.5713C22.5112 19.6902 22.6385 19.7882 22.7928 19.8654C22.9492 19.9383 23.1264 19.9946 23.3683 19.9946C23.3975 19.7548 23.3642 19.5734 23.3079 19.4087C23.2495 19.246 23.1661 19.1084 23.0618 18.9874C22.9575 18.8685 22.8282 18.7684 22.6739 18.6934C22.5425 18.6308 22.3945 18.5849 22.2068 18.5703L22.2506 17.8175C22.2944 17.8947 22.3444 17.9677 22.4028 18.0323C22.5092 18.1512 22.6364 18.2492 22.7907 18.3263C22.9471 18.3993 23.1243 18.4556 23.3663 18.4556C23.3954 18.2158 23.3621 18.0344 23.3058 17.8696C23.2474 17.707 23.164 17.5693 23.0597 17.4484C22.9554 17.3295 22.8261 17.2294 22.6718 17.1544C22.5404 17.0918 22.3924 17.0459 22.2047 17.0313L22.2485 16.2785C22.2923 16.3556 22.3423 16.4286 22.4007 16.4933C22.5071 16.6122 22.6343 16.7102 22.7886 16.7873C22.945 16.8603 23.1223 16.9166 23.3642 16.9166C23.3934 16.6768 23.36 16.4954 23.3037 16.3306C23.2453 16.168 23.1619 16.0303 23.0576 15.9094C22.9533 15.7905 22.8241 15.6904 22.6697 15.6153C22.5384 15.5528 22.3903 15.5069 22.2026 15.4923L22.2464 14.7395C22.2902 14.8166 22.3402 14.8896 22.3986 14.9543H22.4132Z" fill="white"/>
<path d="M24.9262 15.5341L24.8657 14.5248C24.9158 14.3747 24.945 14.2078 24.9262 13.9951L24.8636 12.9441L24.7531 12.9503L24.8115 13.9513C24.6238 13.9638 24.4758 14.0118 24.3444 14.0744C24.1901 14.1515 24.0629 14.2495 23.9565 14.3684C23.8522 14.4873 23.7688 14.627 23.7104 14.7897C23.6562 14.9544 23.6208 15.1358 23.6499 15.3757C23.8919 15.3757 24.067 15.3214 24.2255 15.2464C24.3798 15.1692 24.507 15.0712 24.6134 14.9523C24.6718 14.8877 24.7218 14.8147 24.7656 14.7375L24.8094 15.4903C24.6217 15.5029 24.4737 15.5508 24.3423 15.6134C24.188 15.6905 24.0608 15.7886 23.9544 15.9074C23.8501 16.0263 23.7667 16.166 23.7083 16.3287C23.6541 16.4934 23.6187 16.6748 23.6479 16.9147C23.8898 16.9147 24.0649 16.8604 24.2234 16.7854C24.3777 16.7082 24.505 16.6102 24.6113 16.4913C24.6697 16.4267 24.7198 16.3537 24.7635 16.2765L24.8073 17.0294C24.6197 17.0419 24.4716 17.0898 24.3402 17.1524C24.1859 17.2296 24.0587 17.3276 23.9523 17.4464C23.8481 17.5653 23.7646 17.705 23.7063 17.8677C23.652 18.0324 23.6166 18.2139 23.6458 18.4537C23.8877 18.4537 24.0629 18.3995 24.2213 18.3244C24.3757 18.2472 24.5029 18.1492 24.6092 18.0303C24.6676 17.9657 24.7177 17.8927 24.7615 17.8156L24.8053 18.5684C24.6176 18.5809 24.4695 18.6289 24.3381 18.6914C24.1838 18.7686 24.0566 18.8666 23.9502 18.9855C23.846 19.1043 23.7626 19.244 23.7042 19.4067C23.6499 19.5714 23.6145 19.7529 23.6437 19.9927C23.8856 19.9927 24.0608 19.9385 24.2193 19.8634C24.3736 19.7862 24.5008 19.6882 24.6071 19.5694C24.6655 19.5047 24.7156 19.4317 24.7594 19.3546L24.8032 20.1074C24.6155 20.1199 24.4674 20.1679 24.336 20.2304C24.1817 20.3076 24.0545 20.4056 23.9482 20.5245C23.8439 20.6433 23.7605 20.7831 23.7021 20.9457C23.6479 21.1105 23.6124 21.2919 23.6416 21.5317C23.8835 21.5317 24.0587 21.4775 24.2172 21.4024C24.3715 21.3253 24.4987 21.2272 24.6051 21.1084C24.6634 21.0437 24.7135 20.9707 24.7573 20.8936L24.8011 21.6464C24.6134 21.6589 24.4653 21.7069 24.334 21.7694C24.1796 21.8466 24.0524 21.9446 23.9461 22.0635C23.8418 22.1823 23.7584 22.3221 23.7 22.4847C23.6458 22.6495 23.6103 22.8309 23.6395 23.0707C23.8814 23.0707 24.0566 23.0165 24.2151 22.9414C24.3694 22.8643 24.4966 22.7663 24.603 22.6474C24.7093 22.5285 24.7927 22.3888 24.849 22.2282C24.8991 22.076 24.9325 21.9071 24.9116 21.6902L24.8511 20.6809C24.9012 20.5307 24.9304 20.3639 24.9116 20.1512L24.8511 19.1419C24.9012 18.9917 24.9304 18.8249 24.9116 18.6122L24.8511 17.6028C24.9012 17.4527 24.9304 17.2859 24.9116 17.0732L24.8511 16.0638C24.9012 15.9137 24.9304 15.7468 24.9116 15.5341H24.9262Z" fill="white"/>
<path d="M12.9249 13.58C12.9249 13.4215 12.8957 13.2609 12.8311 13.1024C12.7706 12.9606 12.6851 12.8209 12.5412 12.6791V11.9263H12.4307V12.6791C12.2847 12.8209 12.2013 12.9606 12.1408 13.1024C12.0762 13.2609 12.047 13.4215 12.047 13.58C12.047 13.7385 12.0783 13.899 12.1429 14.0575C12.2034 14.1993 12.2889 14.3391 12.4328 14.4809V23.6858H12.5433V14.4809C12.6872 14.3391 12.7727 14.1993 12.8332 14.0575C12.8978 13.899 12.927 13.7385 12.9291 13.58H12.9249Z" fill="white"/>
<path d="M11.3819 14.9543C11.4882 15.0731 11.6154 15.1712 11.7697 15.2483C11.9261 15.3213 12.1034 15.3776 12.3453 15.3776C12.3745 15.1378 12.3411 14.9564 12.2848 14.7916C12.2264 14.629 12.143 14.4913 12.0388 14.3704C11.9345 14.2515 11.8052 14.1514 11.6509 14.0763C11.5195 14.0138 11.3714 13.9679 11.1837 13.9533L11.2421 12.9523L11.1316 12.946L11.0691 13.9971C11.0482 14.2098 11.0795 14.3766 11.1295 14.5268L11.0691 15.5361C11.0482 15.7467 11.0795 15.9156 11.1295 16.0658L11.0691 17.0751C11.0482 17.2878 11.0795 17.4546 11.1295 17.6048L11.0691 18.6141C11.0482 18.8247 11.0795 18.9937 11.1295 19.1438L11.0691 20.1531C11.0482 20.3638 11.0795 20.5327 11.1295 20.6828L11.0691 21.6921C11.0482 21.9069 11.0795 22.0779 11.1316 22.2302C11.19 22.3928 11.2734 22.5305 11.3777 22.6493C11.484 22.7682 11.6113 22.8662 11.7656 22.9434C11.922 23.0164 12.0992 23.0727 12.3411 23.0727C12.3703 22.8329 12.337 22.6514 12.2807 22.4867C12.2223 22.324 12.1389 22.1864 12.0346 22.0654C11.9303 21.9466 11.801 21.8465 11.6467 21.7714C11.5153 21.7088 11.3673 21.663 11.1796 21.6484L11.2234 20.8955C11.2672 20.9727 11.3172 21.0457 11.3756 21.1103C11.482 21.2292 11.6092 21.3272 11.7635 21.4044C11.9199 21.4774 12.0971 21.5337 12.3391 21.5337C12.3682 21.2938 12.3349 21.1124 12.2786 20.9477C12.2202 20.785 12.1368 20.6474 12.0325 20.5264C11.9282 20.4076 11.7989 20.3075 11.6446 20.2324C11.5132 20.1698 11.3652 20.1239 11.1775 20.1093L11.2213 19.3565C11.2651 19.4337 11.3151 19.5067 11.3735 19.5713C11.4799 19.6902 11.6071 19.7882 11.7614 19.8654C11.9178 19.9383 12.0951 19.9946 12.337 19.9946C12.3662 19.7548 12.3328 19.5734 12.2765 19.4087C12.2181 19.246 12.1347 19.1084 12.0304 18.9874C11.9261 18.8685 11.7969 18.7684 11.6425 18.6934C11.5112 18.6308 11.3631 18.5849 11.1754 18.5703L11.2192 17.8175C11.263 17.8947 11.313 17.9677 11.3714 18.0323C11.4778 18.1512 11.605 18.2492 11.7593 18.3263C11.9157 18.3993 12.093 18.4556 12.3349 18.4556C12.3641 18.2158 12.3307 18.0344 12.2744 17.8696C12.216 17.707 12.1326 17.5693 12.0283 17.4484C11.9241 17.3295 11.7948 17.2294 11.6404 17.1544C11.5091 17.0918 11.361 17.0459 11.1733 17.0313L11.2171 16.2785C11.2609 16.3556 11.311 16.4286 11.3693 16.4933C11.4757 16.6122 11.6029 16.7102 11.7572 16.7873C11.9136 16.8603 12.0909 16.9166 12.3328 16.9166C12.362 16.6768 12.3286 16.4954 12.2723 16.3306C12.2139 16.168 12.1305 16.0303 12.0262 15.9094C11.922 15.7905 11.7927 15.6904 11.6384 15.6153C11.507 15.5528 11.3589 15.5069 11.1712 15.4923L11.215 14.7395C11.2588 14.8166 11.3089 14.8896 11.3673 14.9543H11.3819Z" fill="white"/>
<path d="M13.8948 13.9971L13.8322 12.946L13.7217 12.9523L13.7801 13.9533C13.5924 13.9658 13.4443 14.0138 13.3129 14.0763C13.1586 14.1535 13.0314 14.2515 12.9251 14.3704C12.8208 14.4892 12.7374 14.629 12.679 14.7916C12.6248 14.9564 12.5893 15.1378 12.6185 15.3776C12.8604 15.3776 13.0356 15.3234 13.1941 15.2483C13.3484 15.1712 13.4756 15.0731 13.582 14.9543C13.6404 14.8896 13.6904 14.8166 13.7342 14.7395L13.778 15.4923C13.5903 15.5048 13.4422 15.5528 13.3109 15.6153C13.1565 15.6925 13.0293 15.7905 12.923 15.9094C12.8187 16.0282 12.7353 16.168 12.6769 16.3306C12.6227 16.4954 12.5872 16.6768 12.6164 16.9166C12.8583 16.9166 13.0335 16.8624 13.192 16.7873C13.3463 16.7102 13.4735 16.6122 13.5799 16.4933C13.6383 16.4286 13.6883 16.3556 13.7321 16.2785L13.7759 17.0313C13.5882 17.0438 13.4402 17.0918 13.3088 17.1544C13.1545 17.2315 13.0273 17.3295 12.9209 17.4484C12.8166 17.5673 12.7332 17.707 12.6748 17.8696C12.6206 18.0344 12.5851 18.2158 12.6143 18.4556C12.8562 18.4556 13.0314 18.4014 13.1899 18.3263C13.3442 18.2492 13.4714 18.1512 13.5778 18.0323C13.6362 17.9677 13.6862 17.8947 13.73 17.8175L13.7738 18.5703C13.5861 18.5828 13.4381 18.6308 13.3067 18.6934C13.1524 18.7705 13.0252 18.8685 12.9188 18.9874C12.8145 19.1063 12.7311 19.246 12.6727 19.4087C12.6185 19.5734 12.5831 19.7548 12.6123 19.9946C12.8542 19.9946 13.0293 19.9404 13.1878 19.8654C13.3421 19.7882 13.4694 19.6902 13.5757 19.5713C13.6341 19.5067 13.6841 19.4337 13.7279 19.3565L13.7717 20.1093C13.584 20.1219 13.436 20.1698 13.3046 20.2324C13.1503 20.3095 13.0231 20.4076 12.9167 20.5264C12.8125 20.6453 12.729 20.785 12.6706 20.9477C12.6164 21.1124 12.581 21.2938 12.6102 21.5337C12.8521 21.5337 13.0273 21.4794 13.1857 21.4044C13.3401 21.3272 13.4673 21.2292 13.5736 21.1103C13.632 21.0457 13.6821 20.9727 13.7259 20.8955L13.7696 21.6484C13.582 21.6609 13.4339 21.7088 13.3025 21.7714C13.1482 21.8486 13.021 21.9466 12.9146 22.0654C12.8104 22.1843 12.727 22.324 12.6686 22.4867C12.6143 22.6514 12.5789 22.8329 12.6081 23.0727C12.85 23.0727 13.0252 23.0185 13.1837 22.9434C13.338 22.8662 13.4652 22.7682 13.5715 22.6493C13.6779 22.5305 13.7613 22.3908 13.8176 22.2302C13.8677 22.0779 13.901 21.909 13.8802 21.6921L13.8197 20.6828C13.8697 20.5327 13.8989 20.3658 13.8802 20.1531L13.8197 19.1438C13.8697 18.9937 13.8989 18.8268 13.8802 18.6141L13.8197 17.6048C13.8697 17.4546 13.8989 17.2878 13.8802 17.0751L13.8197 16.0658C13.8697 15.9156 13.8989 15.7488 13.8802 15.5361L13.8197 14.5268C13.8697 14.3766 13.8989 14.2098 13.8802 13.9971H13.8948Z" fill="white"/>
</svg>
